<?xml version="1.0" encoding="iso-8859-1"?>
<!-- Generator: Adobe Illustrator 20.1.0, SVG Export Plug-In . SVG Version: 6.00 Build 0)  -->
<svg xmlns="http://www.w3.org/2000/svg" xmlns:xlink="http://www.w3.org/1999/xlink" version="1.1" id="&#1057;&#1083;&#1086;&#1081;_1" x="0px" y="0px" viewBox="0 0 64 64" style="enable-background:new 0 0 64 64;" xml:space="preserve">
<linearGradient id="SVGID_1__43673" gradientUnits="userSpaceOnUse" x1="32" y1="9.25" x2="32" y2="55.0007" spreadMethod="reflect">
	<stop offset="0" style="stop-color:#1A6DFF"/>
	<stop offset="1" style="stop-color:#C822FF"/>
</linearGradient>
<path style="fill:url(#SVGID_1__43673);" d="M60.099,13.851c-0.563-0.372-1.271-0.436-1.893-0.169L54,15.484V13c0-1.654-1.346-3-3-3H35  c-1.654,0-3,1.346-3,3v6H10c-2.206,0-4,1.794-4,4v25H5c-1.103,0-2,0.897-2,2v1c0,1.654,1.346,3,3,3h44c1.654,0,3-1.346,3-3v-1  c0-1.103-0.897-2-2-2h-1V28h1c1.654,0,3-1.346,3-3v-2.484l4.206,1.802c0.254,0.109,0.522,0.163,0.79,0.163  c0.387,0,0.77-0.112,1.103-0.332C60.663,23.777,61,23.152,61,22.477v-6.953C61,14.848,60.663,14.223,60.099,13.851z M35,28h9v16H12  V25h20C32,26.654,33.346,28,35,28z M51,51c0,0.552-0.448,1-1,1H6c-0.552,0-1-0.448-1-1v-1h16.586l0.415,0.415  C22.378,50.792,22.879,51,23.412,51h9.176c0.533,0,1.034-0.208,1.411-0.585L34.414,50H51V51z M48,48H33.586l-0.998,1h-9.173  l-1.001-1H8V23c0-1.103,0.897-2,2-2h22v2H12c-1.103,0-2,0.897-2,2v21h36V28h2V48z M52,25c0,0.552-0.448,1-1,1H35  c-0.552,0-1-0.448-1-1V13c0-0.552,0.448-1,1-1h16c0.552,0,1,0.448,1,1v3.341v5.318V25z M58.998,22.481L54,20.341V17.66l5-2.137  L58.998,22.481z"/>
<linearGradient id="SVGID_2__43673" gradientUnits="userSpaceOnUse" x1="43" y1="9.25" x2="43" y2="55.0007" spreadMethod="reflect">
	<stop offset="0" style="stop-color:#1A6DFF"/>
	<stop offset="1" style="stop-color:#C822FF"/>
</linearGradient>
<path style="fill:url(#SVGID_2__43673);" d="M43,14c-2.757,0-5,2.243-5,5s2.243,5,5,5s5-2.243,5-5S45.757,14,43,14z M43,22  c-1.654,0-3-1.346-3-3s1.346-3,3-3s3,1.346,3,3S44.654,22,43,22z"/>
<linearGradient id="SVGID_3__43673" gradientUnits="userSpaceOnUse" x1="33" y1="30.75" x2="33" y2="35.3454" spreadMethod="reflect">
	<stop offset="0" style="stop-color:#6DC7FF"/>
	<stop offset="1" style="stop-color:#E6ABFF"/>
</linearGradient>
<circle style="fill:url(#SVGID_3__43673);" cx="33" cy="33" r="2"/>
<linearGradient id="SVGID_4__43673" gradientUnits="userSpaceOnUse" x1="23" y1="30.75" x2="23" y2="35.3454" spreadMethod="reflect">
	<stop offset="0" style="stop-color:#6DC7FF"/>
	<stop offset="1" style="stop-color:#E6ABFF"/>
</linearGradient>
<circle style="fill:url(#SVGID_4__43673);" cx="23" cy="33" r="2"/>
<linearGradient id="SVGID_5__43673" gradientUnits="userSpaceOnUse" x1="28" y1="35.8333" x2="28" y2="40.1795" spreadMethod="reflect">
	<stop offset="0" style="stop-color:#6DC7FF"/>
	<stop offset="1" style="stop-color:#E6ABFF"/>
</linearGradient>
<path style="fill:url(#SVGID_5__43673);" d="M31,37c0,1.657-1.343,3-3,3s-3-1.343-3-3v-1h6V37z"/>
</svg>
